<svg width="1884" height="628" viewBox="0 0 1884 628" fill="none" xmlns="http://www.w3.org/2000/svg">
<rect x="7.84947" y="7.84947" width="1868.17" height="612.259" rx="86.3442" fill="black"/>
<rect x="7.84947" y="7.84947" width="1868.17" height="612.259" rx="86.3442" stroke="#A6A6A6" stroke-width="15.6989"/>
<path d="M387.835 325.959C388.025 311.518 391.954 297.358 399.256 284.797C406.558 272.237 416.996 261.683 429.598 254.119C421.593 242.956 411.031 233.77 398.753 227.289C386.474 220.809 372.817 217.213 358.866 216.786C329.106 213.737 300.255 234.172 285.089 234.172C269.63 234.172 246.281 217.089 221.138 217.594C204.875 218.107 189.025 222.724 175.132 230.996C161.24 239.267 149.78 250.911 141.867 264.793C107.593 322.728 133.159 407.873 165.991 454.704C182.418 477.636 201.616 503.251 226.737 502.343C251.319 501.347 260.5 487.039 290.172 487.039C319.569 487.039 328.183 502.343 353.813 501.765C380.191 501.347 396.81 478.732 412.66 455.583C424.463 439.243 433.545 421.185 439.57 402.075C424.246 395.748 411.168 385.155 401.968 371.62C392.768 358.084 387.852 342.204 387.835 325.959Z" fill="white"/>
<path d="M339.424 185.987C353.806 169.131 360.892 147.466 359.176 125.592C337.203 127.845 316.907 138.097 302.33 154.307C295.203 162.225 289.745 171.438 286.267 181.417C282.789 191.397 281.36 201.947 282.061 212.466C293.051 212.577 303.924 210.251 313.86 205.665C323.796 201.078 332.537 194.35 339.424 185.987Z" fill="white"/>
<path d="M577.58 128.329H610.074C638.153 128.329 651.813 145.025 651.813 175.311C651.813 205.598 638.015 222.5 610.074 222.5H577.58V128.329ZM593.241 141.506V209.323H608.35C626.977 209.323 635.738 198.078 635.738 175.518C635.738 152.821 626.908 141.506 608.35 141.506H593.241ZM701.347 148.336C720.389 148.336 733.703 160.685 733.703 181.175V190.627C733.703 211.807 720.389 223.742 701.347 223.742C682.03 223.742 668.853 211.945 668.853 190.696V181.244C668.853 161.306 682.237 148.336 701.347 148.336ZM701.416 160.685C690.516 160.685 684.307 169.792 684.307 182.003V190.144C684.307 202.355 690.102 211.393 701.416 211.393C712.593 211.393 718.319 202.424 718.319 190.144V182.003C718.319 169.792 712.317 160.685 701.416 160.685ZM846.156 149.578L826.977 222.5H811.386L796.139 168.688H795.725L780.754 222.5H765.094L745.087 149.578H761.575L773.303 205.184H773.993L788.688 149.578H803.107L818.216 205.184H818.906L830.841 149.578H846.156ZM861.334 222.5V149.578H876.374V162.686H877.133C878.995 156.96 884.308 148.474 899.071 148.474C913.766 148.474 923.632 156.615 923.632 173.241V222.5H908.316V177.726C908.316 166.618 902.521 161.513 893.897 161.513C882.583 161.513 876.65 170.206 876.65 182.003V222.5H861.334ZM946.812 222.5V123.362H962.128V222.5H946.812ZM1014.7 148.336C1033.74 148.336 1047.05 160.685 1047.05 181.175V190.627C1047.05 211.807 1033.74 223.742 1014.7 223.742C995.381 223.742 982.204 211.945 982.204 190.696V181.244C982.204 161.306 995.588 148.336 1014.7 148.336ZM1014.77 160.685C1003.87 160.685 997.657 169.792 997.657 182.003V190.144C997.657 202.355 1003.45 211.393 1014.77 211.393C1025.94 211.393 1031.67 202.424 1031.67 190.144V182.003C1031.67 169.792 1025.67 160.685 1014.77 160.685ZM1086.72 223.604C1072.58 223.604 1062.85 214.911 1062.85 201.32C1062.85 188.419 1071.82 179.727 1088.65 179.727H1107.07V172.897C1107.07 164.549 1101.76 160.616 1093.35 160.616C1085.07 160.616 1081.34 164.066 1080.17 168.895H1065.61C1066.51 156.684 1075.68 148.474 1093.83 148.474C1109.42 148.474 1122.32 154.959 1122.32 173.104V222.5H1107.76V213.048H1107.07C1103.83 218.637 1097.49 223.604 1086.72 223.604ZM1091.48 211.738C1100.18 211.738 1107.07 205.805 1107.07 197.871V190.006H1091.07C1082.17 190.006 1078.24 194.49 1078.24 200.561C1078.24 208.15 1084.58 211.738 1091.48 211.738ZM1169.51 148.612C1179.79 148.612 1187.65 153.166 1190.48 160.547H1191.24V123.362H1206.56V222.5H1191.66V210.841H1190.9C1188.69 218.223 1179.93 223.466 1169.3 223.466C1152.54 223.466 1141.64 211.531 1141.64 192.283V179.795C1141.64 160.547 1152.75 148.612 1169.51 148.612ZM1173.79 161.168C1163.58 161.168 1157.23 168.757 1157.23 182.003V190.006C1157.23 203.321 1163.65 210.91 1174.13 210.91C1184.48 210.91 1191.24 203.39 1191.24 190.972V179.933C1191.24 168.688 1183.86 161.168 1173.79 161.168ZM1290.66 148.336C1309.7 148.336 1323.01 160.685 1323.01 181.175V190.627C1323.01 211.807 1309.7 223.742 1290.66 223.742C1271.34 223.742 1258.16 211.945 1258.16 190.696V181.244C1258.16 161.306 1271.55 148.336 1290.66 148.336ZM1290.72 160.685C1279.82 160.685 1273.62 169.792 1273.62 182.003V190.144C1273.62 202.355 1279.41 211.393 1290.72 211.393C1301.9 211.393 1307.63 202.424 1307.63 190.144V182.003C1307.63 169.792 1301.63 160.685 1290.72 160.685ZM1342.74 222.5V149.578H1357.78V162.686H1358.54C1360.4 156.96 1365.72 148.474 1380.48 148.474C1395.17 148.474 1405.04 156.615 1405.04 173.241V222.5H1389.72V177.726C1389.72 166.618 1383.93 161.513 1375.31 161.513C1363.99 161.513 1358.06 170.206 1358.06 182.003V222.5H1342.74ZM1464.3 150.061V131.848H1479.27V150.061H1495.62V162.065H1479.27V200.768C1479.27 208.702 1482.24 210.91 1490.45 210.91C1492.52 210.91 1495.28 210.772 1496.45 210.634V222.362C1495.21 222.569 1490.1 222.983 1486.65 222.983C1468.92 222.983 1464.1 216.636 1464.1 202.01V162.065H1452.99V150.061H1464.3ZM1514.94 222.5V123.362H1530.19V162.686H1530.95C1532.53 157.512 1538.47 148.474 1553.09 148.474C1567.3 148.474 1577.45 156.684 1577.45 173.31V222.5H1562.2V177.795C1562.2 166.687 1556.06 161.513 1547.37 161.513C1536.4 161.513 1530.19 170.137 1530.19 182.003V222.5H1514.94ZM1628.84 223.742C1608.97 223.742 1596.62 211.531 1596.62 190.972V181.106C1596.62 160.409 1610.15 148.336 1627.95 148.336C1646.23 148.336 1659.13 161.03 1659.13 181.106V189.661H1611.8V193.248C1611.8 203.735 1618.01 211.462 1628.77 211.462C1636.78 211.462 1642.3 207.667 1643.33 203.114H1658.3C1657.4 211.531 1648.5 223.742 1628.84 223.742ZM1611.8 179.658H1644.16V178.692C1644.16 167.722 1637.74 160.409 1628.01 160.409C1618.29 160.409 1611.8 167.722 1611.8 178.692V179.658Z" fill="white"/>
<path d="M599.795 485.5H567.922L632.772 297.159H667.818L732.531 485.5H699.416L682.72 433.344H616.628L599.795 485.5ZM650.433 329.722H649.191L623.665 409.336H675.683L650.433 329.722ZM820.496 487.57C801.593 487.57 787.243 478.601 779.516 465.217H778.412V533.931H747.781V339.656H777.584V361.043H778.688C786.691 347.107 801.593 337.724 821.186 337.724C853.887 337.724 877.205 362.423 877.205 406.024V418.994C877.205 462.32 854.163 487.57 820.496 487.57ZM813.459 462.32C832.914 462.32 846.16 446.728 846.16 417.338V407.128C846.16 378.842 833.742 362.699 812.907 362.699C791.52 362.699 778.136 380.084 778.136 406.99V417.338C778.136 444.934 791.658 462.32 813.459 462.32ZM976.208 487.57C957.305 487.57 942.955 478.601 935.229 465.217H934.125V533.931H903.493V339.656H933.297V361.043H934.401C942.403 347.107 957.305 337.724 976.898 337.724C1009.6 337.724 1032.92 362.423 1032.92 406.024V418.994C1032.92 462.32 1009.88 487.57 976.208 487.57ZM969.171 462.32C988.626 462.32 1001.87 446.728 1001.87 417.338V407.128C1001.87 378.842 989.454 362.699 968.619 362.699C947.233 362.699 933.849 380.084 933.849 406.99V417.338C933.849 444.934 947.371 462.32 969.171 462.32ZM1096.39 433.206H1127.03C1128.41 449.487 1142.76 463.423 1169.39 463.423C1193.81 463.423 1208.3 451.971 1208.3 434.172C1208.3 419.822 1198.64 412.095 1178.49 407.266L1147.59 399.539C1123.3 393.882 1101.5 379.394 1101.5 348.763C1101.5 312.75 1132.96 293.019 1169.52 293.019C1206.09 293.019 1236.58 312.75 1237.27 347.935H1207.19C1205.81 331.929 1193.53 318.683 1169.11 318.683C1147.59 318.683 1132.96 328.894 1132.96 346.417C1132.96 358.697 1141.51 367.528 1159.04 371.529L1189.81 379.118C1218.09 386.017 1239.62 399.401 1239.62 431.412C1239.62 468.391 1209.68 489.225 1167.04 489.225C1114.61 489.225 1097.08 458.594 1096.39 433.206ZM1276.94 339.656V304.196H1307.02V339.656H1335.45V364.216H1307.02V442.037C1307.02 457.904 1312.96 462.32 1329.38 462.32C1332 462.32 1334.48 462.32 1336.27 462.044V485.5C1333.79 485.914 1328 486.466 1321.79 486.466C1286.33 486.466 1276.53 473.772 1276.53 444.52V364.216H1256.38V339.656H1276.94ZM1418.17 337.173C1460.11 337.173 1482.88 366.7 1482.88 406.438V418.166C1482.88 459.284 1460.25 487.984 1418.17 487.984C1376.09 487.984 1353.18 459.284 1353.18 418.166V406.438C1353.18 366.838 1376.22 337.173 1418.17 337.173ZM1418.17 361.733C1395.4 361.733 1384.09 380.36 1384.09 406.852V418.028C1384.09 444.106 1395.26 463.285 1418.17 463.285C1441.07 463.285 1452.11 444.244 1452.11 418.028V406.852C1452.11 380.222 1440.94 361.733 1418.17 361.733ZM1508.76 485.5V339.656H1539.39V358.835H1540.49C1544.22 349.729 1555.12 337.586 1575.4 337.586C1579.4 337.586 1582.85 337.862 1585.75 338.414V365.458C1583.13 364.768 1577.74 364.354 1572.64 364.354C1548.08 364.354 1539.8 379.532 1539.8 399.125V485.5H1508.76ZM1660.05 487.984C1621 487.984 1596.17 462.182 1596.17 418.994V404.23C1596.17 363.527 1620.45 337.173 1658.81 337.173C1697.72 337.173 1721.18 364.492 1721.18 405.61V419.546H1626.39V422.996C1626.39 447.556 1639.63 463.837 1660.47 463.837C1676.06 463.837 1686.68 456.11 1690.41 443.554H1719.52C1715.11 467.149 1696.07 487.984 1660.05 487.984ZM1626.39 398.159H1691.24V397.883C1691.24 377.186 1678.4 360.905 1658.95 360.905C1639.22 360.905 1626.39 377.186 1626.39 397.883V398.159Z" fill="white"/>
</svg>
