<svg width="1884" height="628" viewBox="0 0 1884 628" fill="none" xmlns="http://www.w3.org/2000/svg">
<rect x="7.84947" y="7.84947" width="1868.17" height="612.259" rx="86.3442" fill="black"/>
<rect x="7.84947" y="7.84947" width="1868.17" height="612.259" rx="86.3442" stroke="#A6A6A6" stroke-width="15.6989"/>
<path d="M279.517 305.528L126.998 471.061C127.013 471.091 127.013 471.135 127.027 471.164C131.711 489.138 147.755 502.366 166.807 502.366C174.428 502.366 181.577 500.257 187.708 496.565L188.195 496.272L359.866 394.975L279.517 305.528Z" fill="#EA4335"/>
<path d="M433.81 277.341L433.666 277.238L359.549 233.306L276.048 309.29L359.85 394.957L433.566 351.464C446.487 344.316 455.269 330.385 455.269 314.329C455.269 298.362 446.616 284.504 433.81 277.341Z" fill="#FBBC04"/>
<path d="M126.995 156.884C126.079 160.342 125.592 163.975 125.592 167.725V460.236C125.592 463.986 126.079 467.619 127.01 471.061L284.757 309.761L126.995 156.884Z" fill="#4285F4"/>
<path d="M280.643 313.977L359.574 233.276L188.103 131.612C181.872 127.789 174.595 125.591 166.816 125.591C147.764 125.591 131.691 138.849 127.007 156.838C127.007 156.852 126.992 156.867 126.992 156.882L280.643 313.977Z" fill="#34A853"/>
<path d="M684.631 176.845C684.631 192.544 679.974 205.051 670.659 214.366C660.193 225.46 646.43 231.007 629.371 231.007C613.044 231.007 599.229 225.355 587.926 214.052C576.622 202.748 570.971 188.829 570.971 172.292C570.971 155.756 576.622 141.837 587.926 130.533C599.229 119.23 613.044 113.578 629.371 113.578C637.639 113.578 645.436 115.044 652.762 117.974C660.088 120.905 666.106 125.039 670.816 130.376L660.455 140.738C657.001 136.551 652.501 133.307 646.954 131.004C641.511 128.597 635.65 127.394 629.371 127.394C617.126 127.394 606.764 131.632 598.287 140.11C589.914 148.692 585.728 159.419 585.728 172.292C585.728 185.166 589.914 195.893 598.287 204.475C606.764 212.953 617.126 217.191 629.371 217.191C640.569 217.191 649.884 214.052 657.315 207.772C664.746 201.493 669.037 192.858 670.188 181.869H629.371V168.368H683.846C684.369 171.298 684.631 174.124 684.631 176.845ZM767.801 116.09V129.905H716.623V165.542H762.777V179.043H716.623V214.68H767.801V228.495H702.18V116.09H767.801ZM825.572 129.905V228.495H811.129V129.905H779.731V116.09H856.97V129.905H825.572ZM920.985 228.495H906.542V116.09H920.985V228.495ZM981.948 129.905V228.495H967.505V129.905H936.107V116.09H1013.35V129.905H981.948ZM1169.9 172.292C1169.9 188.933 1164.35 202.853 1153.26 214.052C1142.06 225.355 1128.35 231.007 1112.13 231.007C1095.8 231.007 1082.09 225.355 1071 214.052C1059.9 202.853 1054.36 188.933 1054.36 172.292C1054.36 155.652 1059.9 141.732 1071 130.533C1082.09 119.23 1095.8 113.578 1112.13 113.578C1128.46 113.578 1142.17 119.282 1153.26 130.69C1164.35 141.889 1169.9 155.756 1169.9 172.292ZM1069.11 172.292C1069.11 185.27 1073.2 195.998 1081.36 204.475C1089.63 212.953 1099.88 217.191 1112.13 217.191C1124.37 217.191 1134.58 212.953 1142.74 204.475C1151.01 196.103 1155.14 185.375 1155.14 172.292C1155.14 159.21 1151.01 148.482 1142.74 140.11C1134.58 131.632 1124.37 127.394 1112.13 127.394C1099.88 127.394 1089.63 131.632 1081.36 140.11C1073.2 148.587 1069.11 159.315 1069.11 172.292ZM1201.39 228.495H1186.95V116.09H1204.53L1259.16 203.533H1259.79L1259.16 181.869V116.09H1273.6V228.495H1258.53L1201.39 136.813H1200.76L1201.39 158.477V228.495Z" fill="white"/>
<path d="M1468.14 494.711H1493.71V321.842H1468.14V494.711ZM1698.45 384.111L1669.14 459.061H1668.26L1637.84 384.111H1610.3L1655.91 488.862L1629.92 547.135H1656.57L1726.88 384.111H1698.45ZM1553.44 475.075C1545.05 475.075 1533.38 470.857 1533.38 460.389C1533.38 447.058 1547.92 441.942 1560.48 441.942C1571.72 441.942 1577.02 444.389 1583.85 447.722C1581.86 463.735 1568.2 475.075 1553.44 475.075ZM1556.52 380.336C1538.01 380.336 1518.83 388.564 1510.9 406.804L1533.6 416.359C1538.45 406.804 1547.48 403.679 1556.96 403.679C1570.19 403.679 1583.63 411.685 1583.85 425.929V427.699C1579.22 425.03 1569.31 421.033 1557.18 421.033C1532.72 421.033 1507.81 434.599 1507.81 459.946C1507.81 483.081 1527.87 497.988 1550.34 497.988C1567.54 497.988 1577.02 490.203 1582.97 481.076H1583.85V494.421H1608.53V428.141C1608.53 397.456 1585.83 380.336 1556.52 380.336ZM1398.5 405.158H1362.13V345.903H1398.5C1417.61 345.903 1428.46 361.875 1428.46 375.524C1428.46 388.924 1417.61 405.158 1398.5 405.158ZM1397.84 321.842H1336.57V494.711H1362.13V429.22H1397.84C1426.18 429.22 1454.04 408.505 1454.04 375.524C1454.04 342.543 1426.18 321.842 1397.84 321.842ZM1063.73 475.102C1046.07 475.102 1031.28 460.182 1031.28 439.688C1031.28 418.973 1046.07 403.817 1063.73 403.817C1081.18 403.817 1094.85 418.973 1094.85 439.688C1094.85 460.182 1081.18 475.102 1063.73 475.102ZM1093.1 393.791H1092.21C1086.47 386.891 1075.44 380.654 1061.53 380.654C1032.38 380.654 1005.67 406.486 1005.67 439.688C1005.67 472.655 1032.38 498.279 1061.53 498.279C1075.44 498.279 1086.47 492.042 1092.21 484.907H1093.1V493.384C1093.1 515.882 1081.18 527.913 1061.97 527.913C1046.29 527.913 1036.57 516.546 1032.6 506.963L1010.3 516.325C1016.7 531.923 1033.71 551.076 1061.97 551.076C1091.99 551.076 1117.38 533.251 1117.38 489.816V384.208H1093.1V393.791ZM1135.05 494.711H1160.66V321.828H1135.05V494.711ZM1198.4 437.683C1197.74 414.963 1215.84 403.374 1228.86 403.374C1239.03 403.374 1247.63 408.491 1250.5 415.848L1198.4 437.683ZM1277.88 418.074C1273.03 404.937 1258.23 380.654 1227.98 380.654C1197.96 380.654 1173.02 404.481 1173.02 439.467C1173.02 472.433 1197.74 498.279 1230.85 498.279C1257.57 498.279 1273.03 481.795 1279.43 472.212L1259.56 458.84C1252.94 468.645 1243.88 475.102 1230.85 475.102C1217.83 475.102 1208.55 469.087 1202.59 457.291L1280.52 424.753L1277.88 418.074ZM657.002 398.7V423.647H716.16C714.392 437.683 709.761 447.93 702.703 455.051C694.084 463.749 680.613 473.332 657.002 473.332C620.565 473.332 592.089 443.698 592.089 406.942C592.089 370.172 620.565 340.552 657.002 340.552C676.653 340.552 691.001 348.351 701.593 358.377L719.038 340.773C704.238 326.516 684.601 315.592 657.002 315.592C607.108 315.592 565.162 356.593 565.162 406.942C565.162 457.291 607.108 498.279 657.002 498.279C683.93 498.279 704.238 489.36 720.134 472.655C736.482 456.171 741.553 433.009 741.553 414.285C741.553 408.491 741.114 403.153 740.223 398.7H657.002ZM808.823 475.102C791.159 475.102 775.921 460.403 775.921 439.467C775.921 418.295 791.159 403.817 808.823 403.817C826.473 403.817 841.711 418.295 841.711 439.467C841.711 460.403 826.473 475.102 808.823 475.102ZM808.823 380.654C776.579 380.654 750.309 405.379 750.309 439.467C750.309 473.332 776.579 498.279 808.823 498.279C841.053 498.279 867.323 473.332 867.323 439.467C867.323 405.379 841.053 380.654 808.823 380.654ZM936.443 475.102C918.779 475.102 903.541 460.403 903.541 439.467C903.541 418.295 918.779 403.817 936.443 403.817C954.107 403.817 969.331 418.295 969.331 439.467C969.331 460.403 954.107 475.102 936.443 475.102ZM936.443 380.654C904.212 380.654 877.943 405.379 877.943 439.467C877.943 473.332 904.212 498.279 936.443 498.279C968.673 498.279 994.943 473.332 994.943 439.467C994.943 405.379 968.673 380.654 936.443 380.654Z" fill="white"/>
</svg>
