<?xml version="1.0" encoding="iso-8859-1"?>
<!-- Generator: Adobe Illustrator 19.0.0, SVG Export Plug-In . SVG Version: 6.00 Build 0)  -->
<svg version="1.1" id="Layer_1" xmlns="http://www.w3.org/2000/svg" xmlns:xlink="http://www.w3.org/1999/xlink" x="0px" y="0px"
	 viewBox="0 0 472.615 472.615" style="enable-background:new 0 0 472.615 472.615;" xml:space="preserve">
<g>
	<g>
		<path d="M236.308,0C177.21,0,123.225,21.744,81.79,57.603c38.847,38.956,94.88,61.345,154.515,61.345
			c59.623,0,115.662-22.388,154.52-61.346C349.39,21.744,295.404,0,236.308,0z"/>
	</g>
</g>
<g>
	<g>
		<path d="M236.372,353.665c-59.649,0-115.697,22.4-154.545,61.379c41.43,35.84,95.401,57.571,154.481,57.571
			c59.113,0,113.111-21.755,154.55-57.631C352.01,376.042,295.978,353.665,236.372,353.665z"/>
	</g>
</g>
<g>
	<g>
		<path d="M405.246,71.146c-42.54,42.904-103.899,67.494-168.941,67.494c-65.055,0-126.407-24.587-168.944-67.486
			C25.707,113.76,0,172.018,0,236.308c0,64.307,25.721,122.581,67.395,165.188c42.539-42.923,103.904-67.523,168.977-67.523
			c65.021,0,126.371,24.576,168.91,67.459c41.636-42.601,67.334-100.849,67.334-165.124
			C472.615,172.014,446.904,113.752,405.246,71.146z"/>
	</g>
</g>
<g>
</g>
<g>
</g>
<g>
</g>
<g>
</g>
<g>
</g>
<g>
</g>
<g>
</g>
<g>
</g>
<g>
</g>
<g>
</g>
<g>
</g>
<g>
</g>
<g>
</g>
<g>
</g>
<g>
</g>
</svg>
